<?xml version="1.0" encoding="UTF-8"?>
<svg id="Layer_1" data-name="Layer 1" xmlns="http://www.w3.org/2000/svg" viewBox="0 0 64 64">
  <path fill="#84879a" d="M38.97,53.2c.25-1.15.38-2.32.41-3.49.07-2.88-.5-5.57-1.51-7.71-.9-1.93-2.16-3.4-3.63-4.15l6.48-18.12c1.8,3.71,4.02,8.13,7.04,13.91,2.33,4.48,5.14,9.77,8.58,16.18-2.15-1.3-4.93-2.46-8.8-3.47,5.63,2.89,8.4,5.57,11.05,7.62l5.42,10.03c-10.01-5.78-17.79-9.38-25.03-10.8Z">
    <animate attributeName="fill" values="#84879a; #d0abf3; #eec7c5; #b7bedd; #84879a" dur="6s" repeatCount="indefinite" />
  </path>
  <path fill="#d0abf3" d="M21.45,54.07c-.46.13-.92.27-1.39.42-.05.02-.1.03-.16.05-.3.1-.61.2-.92.31-2.49-3.01-5.64-7.24-7.61-11.53.52-.97,1.02-1.9,1.51-2.8,1.12-2.07,2.14-4,3.09-5.79,1.43-2.71,2.69-5.13,3.81-7.31-.75,7.01-.68,16.67,1.67,26.64Z">
    <animate attributeName="fill" values="#d0abf3; #eec7c5; #b7bedd; #84879a; #d0abf3" dur="6s" repeatCount="indefinite" />
  </path>
  <path fill="#eec7c5" d="M40.72,19.74l-6.48,18.12c-.58-.29-1.19-.48-1.82-.53-4-.34-7.39,4.66-7.55,11.16v.33c-.02,1.52.16,2.99.47,4.34-1.28.24-2.57.55-3.89.92-2.35-9.98-2.42-19.64-1.67-26.64,1.36-2.69,2.52-5.03,3.54-7.15,2.14,1.78,4.97,3.51,9.14,5.22-3.87-2.71-6.26-5.11-8.2-7.17C27.43,11.55,29.15,6.98,32,0c3.15,7.41,5.01,12.06,8.72,19.74Z">
    <animate attributeName="fill" values="#eec7c5; #b7bedd; #84879a; #d0abf3; #eec7c5" dur="6s" repeatCount="indefinite" />
  </path>
  <path fill="#b7bedd" d="M18.98,54.85C13.4,56.74,7.29,59.79,0,64c4.54-8.17,8.27-14.95,11.38-20.68,1.97,4.29,5.12,8.52,7.61,11.53Z">
    <animate attributeName="fill" values="#b7bedd; #84879a; #d0abf3; #eec7c5; #b7bedd" dur="6s" repeatCount="indefinite" />
  </path>
</svg>
