<?xml version="1.0" encoding="utf-8"?>
<svg xmlns="http://www.w3.org/2000/svg" viewBox="0 0 500 500">
  <style>
    /* Define the floating grow-shrink animation */
    @keyframes growShrink {
      0%, 100% {
        transform: scale(1);
      }
      50% {
        transform: scale(1.1);
      }
    }

    /* Apply the animation to the entire SVG */
    svg {
      animation: growShrink 4s ease-in-out infinite;
      transform-origin: center;
    }
  </style>
  <path fill="#84879a" d="M 302.485 411.353 C 304.392 402.577 305.384 393.648 305.613 384.719 C 306.147 362.741 301.798 342.212 294.089 325.88 C 287.221 311.152 277.606 299.933 266.388 294.21 L 316.434 155.439 C 330.171 183.751 346.518 217.972 369.565 262.081 C 387.346 296.27 408.791 336.641 435.043 385.558 C 418.635 375.638 397.42 366.785 367.886 359.078 C 410.852 381.132 431.991 401.585 452.214 417.229 L 493.577 493.773 C 417.186 449.663 357.813 422.19 302.56 411.353 L 302.485 411.353 Z">
    <animate attributeName="fill" values="#84879a; #d0abf3; #eec7c5; #b7bedd; #84879a" dur="6s" repeatCount="indefinite"/>
  </path>
  <path fill="#d0abf3" d="M 171.864 418.13 C 168.353 419.122 163.042 420.71 159.454 421.854 C 159.073 422.007 158.692 422.083 158.233 422.235 C 155.944 422.999 153.579 423.762 151.213 424.602 C 132.21 401.63 108.171 369.349 93.137 336.61 C 97.105 329.207 100.922 322.111 104.66 315.243 C 113.208 299.445 120.992 284.708 128.241 271.048 C 139.154 250.367 148.969 231.738 157.516 215.102 C 151.793 268.598 163.301 339.114 181.235 415.2 L 171.864 418.13 Z">
    <animate attributeName="fill" values="#d0abf3; #eec7c5; #b7bedd; #84879a; #d0abf3" dur="6s" repeatCount="indefinite"/>
  </path>
  <path fill="#eec7c5" d="M 317.121 156.66 L 267.692 294.897 C 263.266 292.683 258.588 291.28 253.78 290.898 C 223.254 288.304 197.383 326.461 196.162 376.065 L 196.162 378.584 C 196.01 390.183 197.383 401.402 199.75 411.704 C 189.981 413.536 180.098 415.833 170.025 418.656 C 152.091 342.495 151.594 268.843 157.317 215.422 C 167.696 194.894 176.549 177.036 184.333 160.857 C 200.664 174.441 222.262 187.644 254.085 200.694 C 224.552 180.012 206.312 161.696 191.507 145.976 C 215.699 94.158 228.825 59.282 250.575 6.014 C 274.615 62.563 288.809 98.05 317.121 156.66 Z">
    <animate attributeName="fill" values="#eec7c5; #b7bedd; #84879a; #d0abf3; #eec7c5" dur="6s" repeatCount="indefinite"/>
  </path>
  <path fill="#b7bedd" d="M 151.541 424.472 C 108.957 438.896 62.206 461.889 6.573 494.018 C 41.22 431.668 69.617 379.911 93.351 336.184 C 108.385 368.922 133.164 401.295 152.167 424.266 L 151.541 424.472 Z">
    <animate attributeName="fill" values="#b7bedd; #84879a; #d0abf3; #eec7c5; #b7bedd" dur="6s" repeatCount="indefinite"/>
  </path>
</svg>
