<?xml version="1.0" encoding="utf-8"?>
<svg xmlns="http://www.w3.org/2000/svg" viewBox="0 0 500 500">
  <path fill="#84879a" d="M 193.724 233.843 C 193.974 232.693 194.104 231.523 194.134 230.353 C 194.204 227.473 193.634 224.783 192.624 222.643 C 191.724 220.713 190.464 219.243 188.994 218.493 L 195.552 200.309 C 197.352 204.019 199.494 208.503 202.514 214.283 C 204.844 218.763 207.654 224.053 211.094 230.463 C 208.944 229.163 206.164 228.003 202.294 226.993 C 207.924 229.883 210.694 232.563 213.344 234.613 L 218.764 244.643 C 208.754 238.863 200.974 235.263 193.734 233.843 L 193.724 233.843 Z">
    <animate attributeName="fill" values="#84879a; #d0abf3; #eec7c5; #b7bedd; #84879a" dur="6s" repeatCount="indefinite"/>
  </path>
  <path fill="#d0abf3" d="M 176.608 234.731 C 176.148 234.861 175.452 235.069 174.982 235.219 C 174.932 235.239 174.882 235.249 174.822 235.269 C 174.522 235.369 174.212 235.469 173.902 235.579 C 171.412 232.569 168.262 228.339 166.292 224.049 C 166.812 223.079 167.312 222.149 167.802 221.249 C 168.922 219.179 169.942 217.248 170.892 215.458 C 172.322 212.748 173.608 210.307 174.728 208.127 C 173.978 215.137 175.486 224.377 177.836 234.347 L 176.608 234.731 Z">
    <animate attributeName="fill" values="#d0abf3; #eec7c5; #b7bedd; #84879a; #d0abf3" dur="6s" repeatCount="indefinite"/>
  </path>
  <path fill="#eec7c5" d="M 195.642 200.469 L 189.165 218.583 C 188.585 218.293 187.972 218.109 187.342 218.059 C 183.342 217.719 179.952 222.719 179.792 229.219 L 179.792 229.549 C 179.772 231.069 179.952 232.539 180.262 233.889 C 178.982 234.129 177.687 234.43 176.367 234.8 C 174.017 224.82 173.952 215.169 174.702 208.169 C 176.062 205.479 177.222 203.139 178.242 201.019 C 180.382 202.799 183.212 204.529 187.382 206.239 C 183.512 203.529 181.122 201.129 179.182 199.069 C 182.352 192.279 184.072 187.709 186.922 180.729 C 190.072 188.139 191.932 192.789 195.642 200.469 Z">
    <animate attributeName="fill" values="#eec7c5; #b7bedd; #84879a; #d0abf3; #eec7c5" dur="6s" repeatCount="indefinite"/>
  </path>
  <path fill="#b7bedd" d="M 173.945 235.562 C 168.365 237.452 162.239 240.465 154.949 244.675 C 159.489 236.505 163.21 229.723 166.32 223.993 C 168.29 228.283 171.537 232.525 174.027 235.535 L 173.945 235.562 Z">
    <animate attributeName="fill" values="#b7bedd; #84879a; #d0abf3; #eec7c5; #b7bedd" dur="6s" repeatCount="indefinite"/>
  </path>
</svg>